inDegrees=no
num_controls=7
num_derivatives=13
num_iterations=127
num_multipliers=7
num_parameters=0
num_slacks=7
num_states=26
objective=0.469779
objective_accelerations=0.062657
objective_balance=0.002058
objective_effort=0.020068
objective_height=0.375430
objective_ligament=0.009566
solver_duration=2014.417813
status=Solve_Succeeded
success=true
DataType=double
version=3
OpenSimVersion=4.5
endheader
time	/jointset/ground_pelvis/pelvis_tilt/value	/jointset/ground_pelvis/pelvis_tx/value	/jointset/ground_pelvis/pelvis_ty/value	/jointset/hip_l/hip_flexion_l/value	/jointset/hip_l/hip_adduction_l/value	/jointset/hip_l/hip_rotation_l/value	/jointset/back/lumbar_extension/value	/jointset/patellofemoral_l/patellar_flexion_l/value	/jointset/knee_l/knee_flexion_l/value	/jointset/knee_l/knee_adduction_l/value	/jointset/knee_l/knee_rotation_l/value	/jointset/ankle_l/ankle_angle_l/value	/jointset/subtalar_l/subtalar_angle_l/value	/jointset/ground_pelvis/pelvis_tilt/speed	/jointset/ground_pelvis/pelvis_tx/speed	/jointset/ground_pelvis/pelvis_ty/speed	/jointset/hip_l/hip_flexion_l/speed	/jointset/hip_l/hip_adduction_l/speed	/jointset/hip_l/hip_rotation_l/speed	/jointset/back/lumbar_extension/speed	/jointset/patellofemoral_l/patellar_flexion_l/speed	/jointset/knee_l/knee_flexion_l/speed	/jointset/knee_l/knee_adduction_l/speed	/jointset/knee_l/knee_rotation_l/speed	/jointset/ankle_l/ankle_angle_l/speed	/jointset/subtalar_l/subtalar_angle_l/speed	/forceset/tau_hip_flexion_l	/forceset/tau_hip_adduction_l	/forceset/tau_hip_rotation_l	/forceset/tau_knee_flexion_l	/forceset/tau_ankle_angle_l	/forceset/tau_subtalar_angle_l	/forceset/tau_lumbar_extension	lambda_cid13_p0	lambda_cid13_p1	lambda_cid13_p2	lambda_cid13_p3	lambda_cid13_p4	lambda_cid13_p5	lambda_cid14_p0	/jointset/ground_pelvis/pelvis_tilt/accel	/jointset/ground_pelvis/pelvis_tx/accel	/jointset/ground_pelvis/pelvis_ty/accel	/jointset/hip_l/hip_flexion_l/accel	/jointset/hip_l/hip_adduction_l/accel	/jointset/hip_l/hip_rotation_l/accel	/jointset/back/lumbar_extension/accel	/jointset/patellofemoral_l/patellar_flexion_l/accel	/jointset/knee_l/knee_flexion_l/accel	/jointset/knee_l/knee_adduction_l/accel	/jointset/knee_l/knee_rotation_l/accel	/jointset/ankle_l/ankle_angle_l/accel	/jointset/subtalar_l/subtalar_angle_l/accel	gamma_cid13_p0	gamma_cid13_p1	gamma_cid13_p2	gamma_cid13_p3	gamma_cid13_p4	gamma_cid13_p5	gamma_cid14_p0
1	-0.8296621826496522	-0.1599879746385561	0.6140970477709446	2.018523757840536	-0.3362611593160731	0.04567195013946324	-0.4363154913304169	1.060283402976373	1.060283402976368	-0.005597782792419409	-0.1744979405726333	0.0008762530937074004	0.08440855839574631	-0.1614892800198057	0.01226984350512869	0.03165627543114884	0.01251505917741483	-0.006440554635947883	-0.05338123072852876	1.568345651810853e-07	-0.1592666703821687	-0.1592666703821689	-0.01171518789111794	1.224761679022257e-06	-0.02185963377089205	-0.01240308254124648	-0.3782771495553774	-0.002015815770491187	-0.005543320465505073	-0.1340867587750026	0.1195751900591224	0.01742211947874773	0.280067986713139	8.1256705041766	-5.694265924255564	-3.13676426701193	-8.576128977544426	-545.4755135880308	-66.90688149080401	-2.12012203643143	3.128326227856565	0.7696261327148369	1.792722187570488	-7.629062682878493	-0.2380176847931866	-1.27620026582741	-0.03456520299838683	-3.916415407642609	-3.916415407642607	-0.4354293656944744	-0.01867094940629712	0.3157492362406203	-0.1329731707638797	-1.114034244524436e-08	-5.019604370070088e-08	5.987971111303998e-09	2.341010844133757e-09	-1.011256430548391e-08	3.040060651116876e-08	-1.346217251822762e-08
1.01	-0.8311217806871706	-0.159826908506872	0.6145029754548011	2.018268956552535	-0.336336667609314	0.04507482295637973	-0.4363157813503231	1.058494920710358	1.058494920710357	-0.005735944588909804	-0.1744977056455336	0.0006731908649444249	0.08427861318889174	-0.1304285233779873	0.01994453353633247	0.04951385580186524	-0.06344758014179726	-0.008651915577917313	-0.0660517044515051	-4.233381917947011e-05	-0.1984247296505052	-0.1984247296505051	-0.01590410760042731	4.207976914989993e-05	-0.01877675756294805	-0.01358360525587503	-0.3785510977485808	-0.001754344793079507	-0.005548785179504124	-0.1331583076488963	0.1188527153775925	0.01754045685348202	0.280176564513214	7.921372669963165	-5.742020283481709	-3.092449150447442	-8.584437640754286	-545.2245769708497	-66.83452262842339	-2.157868472487412	3.095219058030742	0.7665622796031388	1.779962486143367	-7.575706279971786	-0.2113090379674049	-1.263609623208826	0.01328305293016947	-3.914740023381558	-3.914740023381515	-0.4086779343011866	0.01491543412682799	0.300961145105646	-0.1102291490955454	-1.052545638635959e-08	-6.005034141546658e-08	7.766183890012657e-10	-3.760444059831212e-09	-1.319356974287073e-08	3.909078351619292e-08	-1.591282222480885e-08
1.02	-0.8322707174231335	-0.1595890611066198	0.6150870162472289	2.017255360526636	-0.3364340122597883	0.04435076329653124	-0.4363160214668682	1.05631501008427	1.056315010084273	-0.005915606514643693	-0.1744971718266986	0.0005002382646677613	0.08413693528943428	-0.09935701970871803	0.02762609721873593	0.06727889714542791	-0.1392438884021785	-0.01080782608263011	-0.07876772608152473	1.013750678291629e-05	-0.237552342396937	-0.2375523423969366	-0.02001521373981743	6.10031087426888e-05	-0.01583770807362977	-0.0147496210618317	-0.3788250459417841	-0.001492873815667813	-0.005554249893503151	-0.13222985652279	0.1181302406960626	0.01765879422821632	0.2802851423132891	7.713226185320756	-5.790793419185547	-3.046037911770101	-8.611996682783001	-545.0613280621897	-66.76085098139529	-2.204351974873898	3.130475633346746	0.7710008629547738	1.774214382139741	-7.595796471112325	-0.2269275973418611	-1.285309847236066	-0.01557280705697971	-3.910326103261639	-3.910326103261636	-0.4198666517106231	-0.02305728298191484	0.286983892515477	-0.1300717890295032	-9.44987341324378e-09	-6.710704174402811e-08	2.036888898741458e-09	-1.04522185617259e-08	-1.581138706828792e-08	4.892606926330746e-08	-1.857441570948283e-08
1.03	-0.8331086059197634	-0.1592743272888095	0.6158481893346885	2.015484525929309	-0.3365525499001064	0.04349948986151764	-0.4363156718582755	1.05374416814017	1.053744168140172	-0.00613597205513438	-0.1744964241052183	0.0003560015000912809	0.08398377092743971	-0.06819230510021404	0.03532531561251115	0.08493476123070536	-0.214904929145663	-0.01288020915482156	-0.09147427586661805	3.589962907177058e-05	-0.2765918971938445	-0.2765918971938443	-0.02404320918948751	0.0001017934645791862	-0.01302886497991895	-0.01586926249096545	-0.3786845631559977	-0.001181085389698856	-0.005548809733777062	-0.1312663453529657	0.1173378847809029	0.01783681251331039	0.2801339213517877	7.504781669514069	-5.866933353182382	-2.993551077686375	-8.636620780148881	-544.560141020115	-66.71828106154662	-2.259847830952252	3.113722459061576	0.7700762473712633	1.758124853622144	-7.548546068501755	-0.194459583149473	-1.261442950087555	0.008068034469124342	-3.897143519752665	-3.897143519752697	-0.3920814169655709	0.01964060599238642	0.2749476415945261	-0.1008004978316267	-8.369589451207238e-09	-7.413519516048551e-08	3.363196380237224e-09	-1.715001673298722e-08	-1.842447798439929e-08	5.877303979350457e-08	-2.123816168168837e-08
